<svg width="125" height="32" viewBox="0 0 125 32" fill="none" xmlns="http://www.w3.org/2000/svg">
<rect width="125" height="32" fill="#C0BFBF"/>
<g id="Wireframe - 4" clip-path="url(#clip0_0_1)">
<rect width="1440" height="900" transform="translate(-40 -24)" fill="white"/>
<rect id="Rectangle 1889" x="-40" y="-24" width="1440" height="80" fill="black"/>
<g id="Group 2608885">
<g id="Group 2608884">
<g id="Group 2608883">
<g id="Group 2608881">
<g id="Group">
<path id="Vector" d="M35.2438 10.5193C36.0394 11.3651 36.4381 12.6203 36.4381 14.2832V20.7945H33.4083V14.7896C33.4083 13.8881 33.2269 13.2147 32.8641 12.7712C32.5013 12.3276 31.9769 12.1049 31.2908 12.1049C30.5275 12.1049 29.9187 12.3617 29.4661 12.8771C29.0135 13.3925 28.7854 14.1557 28.7854 15.1702V20.7945H25.7556V9.42034H28.6489V10.7528C29.0494 10.2733 29.5487 9.90339 30.145 9.64301C30.7412 9.38263 31.395 9.25154 32.1062 9.25154C33.4011 9.24974 34.4463 9.67353 35.2438 10.5193Z" fill="white"/>
<path id="Vector_2" d="M45.3643 20.2442C45.0662 20.4848 44.6998 20.6644 44.267 20.7829C43.8324 20.9032 43.3762 20.9625 42.8985 20.9625C41.6556 20.9625 40.6948 20.6177 40.0141 19.9263C39.3335 19.235 38.994 18.2204 38.994 16.8826V12.2101H37.3812V9.67273H38.994V6.90373H42.0238V9.67273H44.6262V12.2101H42.0238V16.8413C42.0238 17.3207 42.137 17.6906 42.3633 17.951C42.5896 18.2114 42.9092 18.3425 43.3241 18.3425C43.8036 18.3425 44.2113 18.2024 44.5472 17.9205L45.3643 20.2442Z" fill="white"/>
<path id="Vector_3" d="M58.3394 5.1059H61.3692V20.7933H58.3447C58.3412 20.7933 58.3394 20.7916 58.3394 20.788V5.1059Z" fill="white"/>
<path id="Vector_4" d="M75.5358 20.6133C74.7078 20.3799 74.0469 20.0889 73.5548 19.7352L74.5641 17.3666C75.0293 17.6917 75.5932 17.9556 76.2542 18.1603C76.9151 18.3651 77.5616 18.4674 78.1956 18.4674C79.4779 18.4674 80.1191 18.1226 80.1191 17.4313C80.1191 17.108 79.9449 16.8746 79.5947 16.7327C79.2445 16.5927 78.7075 16.4724 77.9819 16.3736C77.127 16.2335 76.4212 16.0701 75.8644 15.887C75.3077 15.7038 74.8246 15.3788 74.4169 14.9137C74.0092 14.4486 73.8044 13.786 73.8044 12.9258C73.8044 12.2075 73.9948 11.57 74.3774 11.0134C74.7599 10.4567 75.3167 10.0239 76.0476 9.71326C76.7786 9.40439 77.6424 9.24817 78.641 9.24817C79.3792 9.24817 80.1137 9.33616 80.8447 9.51214C81.5756 9.68812 82.1809 9.93234 82.6604 10.2412L81.6511 12.5882C80.7315 12.0244 79.7276 11.7424 78.641 11.7424C77.9927 11.7424 77.5077 11.8412 77.1845 12.0387C76.8612 12.2362 76.6996 12.4894 76.6996 12.8001C76.6996 13.1521 76.8738 13.3999 77.224 13.5399C77.5742 13.6818 78.131 13.8147 78.8942 13.9422C79.7491 14.0966 80.4478 14.2636 80.9919 14.4396C81.5361 14.6156 82.0085 14.937 82.409 15.4021C82.8095 15.8672 83.0106 16.5155 83.0106 17.3469C83.0106 18.0526 82.8167 18.6793 82.4287 19.2288C82.0408 19.7783 81.4733 20.2057 80.7297 20.5074C79.9844 20.8108 79.1008 20.9617 78.0789 20.9617C77.2114 20.9617 76.3637 20.8449 75.5358 20.6133Z" fill="white"/>
<path id="Vector_5" d="M101.487 9.41873L97.6991 20.7928H94.7861L92.4369 13.7321L90.0088 20.7928H87.0957L83.3278 9.41873H86.1834L88.6492 17.1152L91.2121 9.41873H93.7749L96.2606 17.1152L98.8055 9.41873H101.487Z" fill="white"/>
<path id="Vector_6" d="M112.089 9.67246H114.769V12.2098H112.167V20.7934H109.137V12.2098H107.524V9.67246H109.137V9.16427C109.137 7.86776 109.489 6.83881 110.195 6.07742C110.9 5.31603 111.894 4.93534 113.176 4.93534C113.628 4.93534 114.059 4.98742 114.467 5.09336C114.875 5.19931 115.214 5.35015 115.487 5.54768L114.692 7.936C114.341 7.66843 113.934 7.53375 113.469 7.53375C112.549 7.53375 112.089 8.08324 112.089 9.18223V9.67246Z" fill="white"/>
<g id="Group_2">
<path id="Vector_7" d="M104.399 11.7265H105.341C105.659 11.7265 105.916 11.4697 105.916 11.1518V8.69889H103.698C103.249 8.69889 102.886 9.06162 102.886 9.51055V11.7265C103.255 11.7265 103.743 11.7265 104.399 11.7265Z" fill="white"/>
<path id="Vector_8" d="M102.886 12.8501V20.7944H105.902C105.909 20.7944 105.916 20.7872 105.916 20.78V12.8501H102.886Z" fill="white"/>
</g>
<path id="Vector_9" d="M63.7374 5.1059H66.7672V20.7933H63.7428C63.7392 20.7933 63.7374 20.7916 63.7374 20.788V5.1059Z" fill="white"/>
<g id="Group_3">
<path id="Vector_10" d="M70.5376 11.7265H71.4805C71.7984 11.7265 72.0552 11.4697 72.0552 11.1518V8.69889H69.8372C69.3882 8.69889 69.0254 9.06162 69.0254 9.51055V11.7265C69.3936 11.7265 69.8821 11.7265 70.5376 11.7265Z" fill="white"/>
<path id="Vector_11" d="M69.0254 12.8501V20.7944H72.0408C72.048 20.7944 72.0552 20.7872 72.0552 20.78V12.8501H69.0254Z" fill="white"/>
</g>
<g id="Group_4">
<path id="Vector_12" d="M21.8982 11.7265H22.8411C23.159 11.7265 23.4158 11.4697 23.4158 11.1518V8.69889H21.1978C20.7488 8.69889 20.386 9.06162 20.386 9.51055V11.7265C20.7542 11.7265 21.2445 11.7265 21.8982 11.7265Z" fill="white"/>
<path id="Vector_13" d="M20.3877 12.8501V20.7944H23.4031C23.4103 20.7944 23.4175 20.7872 23.4175 20.78V12.8501H20.3877Z" fill="white"/>
</g>
<path id="Vector_14" d="M56.6852 16.0362H48.7811C48.923 16.7419 49.2607 17.2986 49.7905 17.7062C50.3221 18.1157 50.9812 18.3186 51.7714 18.3186C52.3156 18.3186 52.7969 18.2306 53.219 18.0546C53.6392 17.8786 54.0308 17.6003 54.3936 17.2196L56.0063 19.1231C55.0222 20.3495 53.5854 20.9619 51.6942 20.9619C50.516 20.9619 49.4744 20.7123 48.5674 20.2113C47.6604 19.7103 46.9618 19.0171 46.4697 18.1282C45.9776 17.2393 45.7316 16.2319 45.7316 15.1042C45.7316 13.9909 45.974 12.9871 46.4607 12.091C46.9456 11.1967 47.6138 10.4982 48.4615 9.99718C49.3092 9.49617 50.2574 9.24657 51.3063 9.24657C52.3282 9.24657 53.2549 9.48719 54.0829 9.96486C54.9108 10.4443 55.5627 11.1321 56.0351 12.0263C56.5074 12.9224 56.7445 13.9603 56.7445 15.1455C56.7427 15.1904 56.7247 15.4867 56.6852 16.0362ZM49.5965 12.3783C49.1314 12.8021 48.8458 13.3785 48.7416 14.1112H53.8889C53.7847 13.3929 53.501 12.8183 53.034 12.3873C52.567 11.9581 51.9977 11.7426 51.3242 11.7426C50.6382 11.7444 50.0617 11.9545 49.5965 12.3783Z" fill="white"/>
<path id="Vector_15" d="M124.015 20.2442C123.717 20.4848 123.351 20.6644 122.918 20.7829C122.483 20.9032 122.027 20.9625 121.549 20.9625C120.307 20.9625 119.346 20.6177 118.665 19.9263C117.984 19.235 117.645 18.2204 117.645 16.8826V12.2101H116.032V9.67273H117.645V6.90373H120.675V9.67273H123.277V12.2101H120.675V16.8413C120.675 17.3207 120.788 17.6906 121.014 17.951C121.241 18.2114 121.56 18.3425 121.975 18.3425C122.455 18.3425 122.862 18.2024 123.198 17.9205L124.015 20.2442Z" fill="white"/>
</g>
<g id="Group_5">
<g id="Group_6">
<g id="Group_7">
<path id="Vector_16" d="M6.00394 19.1511V12.0831C6.00394 11.8389 6.01113 11.6036 6.01831 11.3774C6.04166 10.6124 6.06142 9.94977 5.76688 9.64809C5.61063 9.48827 5.35021 9.40926 4.96946 9.40926C4.96946 9.40926 2.40122 9.40926 2.38685 9.40926C1.85165 9.40926 1.26796 9.28535 0.761493 9.55112C0.176005 9.85819 0 10.5549 0 11.1637V20.8498H6.62176C6.23742 20.3901 6.00394 19.7975 6.00394 19.1511Z" fill="#E12625"/>
</g>
</g>
<path id="Vector_17" d="M7.92341 20.8586C7.50315 20.5138 7.25531 19.9949 7.25531 19.4507V11.8584C7.25531 11.6268 7.26249 11.4005 7.26788 11.1814C7.29662 10.2153 7.32356 9.32286 6.75962 8.74105C6.42377 8.39447 5.94784 8.22747 5.30308 8.22747H2.14756C1.43814 8.22747 0.886781 8.07124 0.635344 7.7965C0.608405 7.76777 0.577873 7.74442 0.543749 7.72646C0.215086 7.35295 0.0336914 6.87888 0.0336914 6.37967V2.05198C0.0336914 0.927853 0.947844 0.0138302 2.07212 0.0138302H5.94065C7.06494 0.0138302 7.97909 0.927853 7.97909 2.05198V6.3689C7.97909 7.75161 9.10337 8.87573 10.4863 8.87573H11.9213C13.0455 8.87573 13.9597 9.78975 13.9597 10.9139V20.8586H7.92341Z" fill="#E12625"/>
<g id="Group_8">
<path id="Vector_18" d="M9.10139 2.12374V5.90554C9.10139 6.92551 9.93113 7.75334 10.9495 7.75334C12.4886 7.75334 14.5055 8.10709 14.5055 6.12821C14.5055 6.12102 14.5055 2.33743 14.5055 2.33743C14.5055 1.05888 13.4602 0.00837875 12.1815 0.00837875C12.1815 0.00837875 8.31835 -0.00778353 8.06152 0.00478654C8.64162 0.487836 9.10139 1.3426 9.10139 2.12374Z" fill="#E12625"/>
</g>
</g>
<g id="An LTTS Company">
<path id="Vector_19" d="M123.151 26.5514H124.184L121.959 31.8311H120.986L121.695 30.1869L120.209 26.5514H121.288L122.208 29.0329L123.151 26.5514Z" fill="white"/>
<path id="Vector_20" d="M116.337 26.5489H117.212L117.279 26.9336C117.4 26.7978 117.546 26.6922 117.717 26.6168C117.893 26.5363 118.081 26.4961 118.283 26.4961C118.579 26.4961 118.831 26.5589 119.037 26.6847C119.248 26.8104 119.409 26.9939 119.52 27.2352C119.635 27.4716 119.693 27.7657 119.693 28.1177V30.3201H118.72V28.2459C118.72 27.9543 118.662 27.7356 118.547 27.5897C118.431 27.4439 118.257 27.371 118.026 27.371C117.79 27.371 117.609 27.4464 117.483 27.5973C117.362 27.7431 117.302 27.9618 117.302 28.2535V30.3201H116.337V26.5489Z" fill="white"/>
<path id="Vector_21" d="M114.561 30.3201L114.486 29.86C114.36 30.0159 114.217 30.1391 114.056 30.2296C113.9 30.3201 113.689 30.3654 113.422 30.3654C113.171 30.3654 112.949 30.3226 112.758 30.2371C112.572 30.1466 112.426 30.0234 112.321 29.8676C112.215 29.7067 112.162 29.5181 112.162 29.3019C112.162 28.9851 112.276 28.7236 112.502 28.5175C112.733 28.3063 113.08 28.173 113.543 28.1177L114.486 28.0121V27.7481C114.486 27.6425 114.438 27.5445 114.342 27.454C114.247 27.3635 114.096 27.3182 113.89 27.3182C113.709 27.3182 113.55 27.3635 113.415 27.454C113.284 27.5395 113.196 27.6702 113.151 27.8462L112.321 27.5445C112.421 27.2076 112.613 26.9486 112.894 26.7676C113.176 26.5866 113.523 26.4961 113.935 26.4961C114.438 26.4961 114.815 26.6218 115.066 26.8732C115.323 27.1196 115.451 27.4464 115.451 27.8537V30.3201H114.561ZM114.486 28.6834L113.671 28.789C113.505 28.8091 113.379 28.8594 113.294 28.9398C113.208 29.0153 113.166 29.1083 113.166 29.2189C113.166 29.3245 113.208 29.415 113.294 29.4904C113.379 29.5608 113.5 29.596 113.656 29.596C113.832 29.596 113.98 29.5633 114.101 29.498C114.227 29.4326 114.322 29.3371 114.387 29.2114C114.453 29.0857 114.486 28.9298 114.486 28.7437V28.6834Z" fill="white"/>
<path id="Vector_22" d="M108.68 29.7544L108.801 29.7393V31.8286H107.835V26.5489H108.71L108.771 27.0165C108.881 26.8707 109.037 26.7475 109.238 26.6469C109.439 26.5464 109.671 26.4961 109.932 26.4961C110.259 26.4961 110.548 26.5765 110.8 26.7374C111.051 26.8984 111.247 27.1246 111.388 27.4163C111.534 27.7029 111.607 28.0423 111.607 28.4345C111.607 28.8267 111.534 29.1686 111.388 29.4603C111.247 29.7519 111.051 29.9782 110.8 30.1391C110.553 30.295 110.264 30.3729 109.932 30.3729C109.641 30.3729 109.387 30.3126 109.17 30.1919C108.959 30.0712 108.796 29.9254 108.68 29.7544ZM110.566 28.4345C110.566 28.1177 110.483 27.8638 110.317 27.6727C110.156 27.4766 109.945 27.3786 109.683 27.3786C109.522 27.3786 109.374 27.4213 109.238 27.5068C109.108 27.5872 109.002 27.7054 108.922 27.8613C108.841 28.0121 108.801 28.2032 108.801 28.4345C108.801 28.6608 108.841 28.8518 108.922 29.0077C109.002 29.1636 109.108 29.2843 109.238 29.3698C109.374 29.4502 109.522 29.4904 109.683 29.4904C109.945 29.4904 110.156 29.3949 110.317 29.2038C110.483 29.0077 110.566 28.7513 110.566 28.4345Z" fill="white"/>
<path id="Vector_23" d="M101.178 26.5489H102.053L102.121 26.9185C102.241 26.7928 102.385 26.6922 102.551 26.6168C102.722 26.5363 102.908 26.4961 103.109 26.4961C103.35 26.4961 103.571 26.5489 103.773 26.6545C103.974 26.755 104.135 26.9009 104.255 27.0919C104.391 26.9059 104.567 26.7601 104.783 26.6545C105.005 26.5489 105.243 26.4961 105.5 26.4961C105.796 26.4961 106.053 26.5589 106.269 26.6847C106.49 26.8104 106.661 26.9939 106.782 27.2352C106.903 27.4716 106.963 27.7657 106.963 28.1177V30.3201H105.998V28.2459C105.998 27.9593 105.935 27.7431 105.809 27.5973C105.683 27.4515 105.505 27.3786 105.274 27.3786C105.037 27.3786 104.851 27.454 104.715 27.6048C104.585 27.7557 104.519 27.9744 104.519 28.261V30.3201H103.554V28.2459C103.554 27.9593 103.496 27.7431 103.38 27.5973C103.27 27.4515 103.099 27.3786 102.867 27.3786C102.631 27.3786 102.45 27.454 102.324 27.6048C102.204 27.7506 102.143 27.9669 102.143 28.2535V30.3201H101.178V26.5489Z" fill="white"/>
<path id="Vector_24" d="M98.4836 30.3729C98.1165 30.3729 97.7897 30.295 97.5031 30.1391C97.2164 29.9782 96.9902 29.7544 96.8242 29.4678C96.6633 29.1762 96.5829 28.8342 96.5829 28.442C96.5829 28.0448 96.6659 27.7004 96.8318 27.4087C97.0027 27.1171 97.234 26.8933 97.5257 26.7374C97.8173 26.5765 98.1442 26.4961 98.5062 26.4961C98.8682 26.4961 99.1951 26.5765 99.4867 26.7374C99.7784 26.8933 100.01 27.1171 100.181 27.4087C100.352 27.6953 100.437 28.0347 100.437 28.427C100.437 28.8242 100.349 29.1686 100.173 29.4603C100.002 29.7519 99.7683 29.9782 99.4716 30.1391C99.18 30.295 98.8506 30.3729 98.4836 30.3729ZM98.476 29.5055C98.6319 29.5055 98.7802 29.4678 98.921 29.3924C99.0618 29.3119 99.1775 29.1938 99.268 29.0379C99.3585 28.877 99.4038 28.6733 99.4038 28.427C99.4038 28.1906 99.361 27.9945 99.2755 27.8386C99.1901 27.6777 99.0769 27.5596 98.9361 27.4841C98.8004 27.4037 98.652 27.3635 98.4911 27.3635C98.3352 27.3635 98.1894 27.4037 98.0537 27.4841C97.9229 27.5596 97.8173 27.6777 97.7369 27.8386C97.6615 27.9945 97.6237 28.1957 97.6237 28.442C97.6237 28.6784 97.6615 28.877 97.7369 29.0379C97.8123 29.1938 97.9154 29.3119 98.0461 29.3924C98.1769 29.4678 98.3202 29.5055 98.476 29.5055Z" fill="white"/>
<path id="Vector_25" d="M90.8525 27.681C90.8525 27.2837 90.9204 26.9217 91.0562 26.5949C91.1919 26.263 91.3805 25.9789 91.6219 25.7426C91.8632 25.5012 92.1448 25.3152 92.4666 25.1844C92.7935 25.0537 93.1454 24.9883 93.5226 24.9883C94.0656 24.9883 94.5458 25.1191 94.9632 25.3805C95.3855 25.637 95.7023 26.0066 95.9135 26.4893L95.0612 26.7382C94.9506 26.527 94.8123 26.356 94.6464 26.2253C94.4855 26.0946 94.3095 25.999 94.1184 25.9387C93.9273 25.8783 93.7338 25.8482 93.5376 25.8482C93.2158 25.8482 92.9292 25.9261 92.6778 26.082C92.4264 26.2328 92.2303 26.4465 92.0895 26.7231C91.9537 26.9996 91.8859 27.3189 91.8859 27.681C91.8859 28.043 91.9537 28.3623 92.0895 28.6389C92.2303 28.9104 92.4264 29.1241 92.6778 29.28C92.9292 29.4359 93.2158 29.5138 93.5376 29.5138C93.7388 29.5138 93.9374 29.4836 94.1335 29.4233C94.3346 29.3579 94.5207 29.2498 94.6916 29.099C94.8626 28.9481 95.0084 28.747 95.1291 28.4956L95.9663 28.7294C95.7501 29.2775 95.4283 29.6898 95.0009 29.9663C94.5735 30.2379 94.0807 30.3736 93.5226 30.3736C93.1454 30.3736 92.7935 30.3083 92.4666 30.1775C92.1448 30.0468 91.8632 29.8607 91.6219 29.6194C91.3805 29.378 91.1919 29.0939 91.0562 28.7671C90.9204 28.4352 90.8525 28.0732 90.8525 27.681Z" fill="white"/>
<path id="Vector_26" d="M85.2713 28.8274C85.2964 28.9682 85.3517 29.0914 85.4372 29.197C85.5227 29.3026 85.6333 29.3856 85.7691 29.4459C85.9099 29.5012 86.0733 29.5289 86.2594 29.5289C86.551 29.5289 86.7697 29.4635 86.9155 29.3328C87.0614 29.197 87.1343 29.0336 87.1343 28.8425C87.1343 28.6917 87.089 28.566 86.9985 28.4654C86.908 28.3648 86.7798 28.2793 86.6138 28.209C86.4529 28.1386 86.2644 28.0707 86.0482 28.0053C85.847 27.945 85.6484 27.8796 85.4523 27.8092C85.2562 27.7388 85.0777 27.6508 84.9168 27.5452C84.7559 27.4396 84.6277 27.3039 84.5321 27.1379C84.4416 26.967 84.3964 26.7533 84.3964 26.4968C84.3964 26.175 84.4743 25.901 84.6302 25.6747C84.7911 25.4484 85.0098 25.2775 85.2864 25.1618C85.5629 25.0462 85.8822 24.9883 86.2443 24.9883C86.551 24.9883 86.8276 25.0336 87.0739 25.1241C87.3203 25.2096 87.5265 25.3378 87.6924 25.5088C87.8634 25.6747 87.9891 25.8809 88.0695 26.1272L87.1267 26.3837C87.1016 26.2731 87.0463 26.1775 86.9608 26.0971C86.8753 26.0166 86.7722 25.9538 86.6516 25.9085C86.5309 25.8582 86.4001 25.8331 86.2594 25.8331C86.1085 25.8281 85.9702 25.8507 85.8445 25.901C85.7188 25.9512 85.6182 26.0242 85.5428 26.1197C85.4674 26.2152 85.4297 26.3259 85.4297 26.4516C85.4297 26.5924 85.4724 26.7055 85.5579 26.791C85.6434 26.8714 85.7565 26.9418 85.8973 27.0022C86.0381 27.0575 86.1965 27.1128 86.3725 27.1681C86.5837 27.2284 86.7949 27.2988 87.0061 27.3793C87.2172 27.4547 87.4108 27.5528 87.5868 27.6734C87.7628 27.7891 87.9036 27.9374 88.0092 28.1184C88.1198 28.2995 88.1751 28.5282 88.1751 28.8048C88.1751 29.0964 88.1047 29.3604 87.9639 29.5968C87.8282 29.8331 87.622 30.0216 87.3455 30.1624C87.0689 30.3032 86.722 30.3736 86.3046 30.3736C85.9627 30.3736 85.6509 30.3233 85.3693 30.2228C85.0928 30.1222 84.864 29.9764 84.683 29.7853C84.502 29.5892 84.3838 29.3579 84.3285 29.0914L85.2713 28.8274Z" fill="white"/>
<path id="Vector_27" d="M79.4882 25.0415H83.7723V25.8938H82.1431V30.3212H81.1249V25.8938H79.4882V25.0415Z" fill="white"/>
<path id="Vector_28" d="M74.701 25.0415H78.9852V25.8938H77.356V30.3212H76.3378V25.8938H74.701V25.0415Z" fill="white"/>
<path id="Vector_29" d="M71.9235 25.0415V29.4689H74.2767V30.3212H70.9053V25.0415H71.9235Z" fill="white"/>
<path id="Vector_30" d="M64.5178 26.5489H65.3927L65.4606 26.9336C65.5813 26.7978 65.7271 26.6922 65.8981 26.6168C66.0741 26.5363 66.2626 26.4961 66.4638 26.4961C66.7604 26.4961 67.0119 26.5589 67.218 26.6847C67.4292 26.8104 67.5901 26.9939 67.7007 27.2352C67.8164 27.4716 67.8742 27.7657 67.8742 28.1177V30.3201H66.9012V28.2459C66.9012 27.9543 66.8434 27.7356 66.7278 27.5897C66.6121 27.4439 66.4386 27.371 66.2073 27.371C65.971 27.371 65.79 27.4464 65.6643 27.5973C65.5436 27.7431 65.4833 27.9618 65.4833 28.2535V30.3201H64.5178V26.5489Z" fill="white"/>
<path id="Vector_31" d="M61.402 25.8938H61.1305L59.5767 30.3212H58.5283L60.4215 25.0415H62.1034L63.9966 30.3212H62.9482L61.402 25.8938ZM59.6748 28.2546H62.7521V29.1069H59.6748V28.2546Z" fill="white"/>
</g>
</g>
</g>
</g>
</g>
</g>
<defs>
<clipPath id="clip0_0_1">
<rect width="1440" height="900" fill="white" transform="translate(-40 -24)"/>
</clipPath>
</defs>
</svg>
